<?xml version="1.0" standalone="no"?>
<!DOCTYPE svg PUBLIC "-//W3C//DTD SVG 20010904//EN"
 "http://www.w3.org/TR/2001/REC-SVG-20010904/DTD/svg10.dtd">
<svg version="1.0" xmlns="http://www.w3.org/2000/svg"
 width="640.000000pt" height="640.000000pt" viewBox="0 0 640.000000 640.000000"
 preserveAspectRatio="xMidYMid meet">

<g transform="translate(0.000000,640.000000) scale(0.100000,-0.100000)"
fill="#000000" stroke="none">
<path d="M2980 5393 c-550 -56 -1009 -283 -1350 -666 -293 -328 -463 -690
-530 -1125 -24 -157 -26 -405 -5 -579 54 -437 262 -857 584 -1181 173 -173
326 -282 544 -387 316 -152 629 -214 1007 -202 217 7 343 29 580 99 103 30
260 101 386 174 51 30 97 54 101 54 4 0 77 -70 163 -155 l156 -155 52 0 c108
0 224 70 271 166 29 58 39 142 21 184 -7 17 -73 88 -146 159 -74 71 -134 135
-134 143 0 8 16 30 36 49 40 38 152 193 208 286 122 205 221 495 260 764 23
154 21 420 -4 589 -68 462 -301 912 -638 1231 -339 321 -739 504 -1198 549
-95 9 -290 11 -364 3z m485 -138 c404 -73 721 -239 1005 -524 75 -75 151 -155
169 -178 l33 -43 -63 0 -62 0 -126 123 c-214 208 -395 351 -550 439 -92 51
-111 57 -111 33 0 -9 -10 -19 -23 -24 -47 -18 -46 -15 -49 -473 -2 -240 -6
-439 -9 -443 -4 -3 -18 0 -33 6 l-26 12 0 477 c0 442 -1 478 -17 493 -14 12
-50 16 -163 20 -80 2 -175 10 -212 18 -57 11 -79 11 -135 -1 -38 -7 -141 -15
-230 -17 -116 -3 -164 -8 -172 -17 -7 -9 -12 -176 -13 -516 -2 -392 -6 -504
-15 -508 -10 -3 -13 18 -13 84 0 77 -3 91 -25 120 l-25 32 -2 354 -3 353 -36
3 c-27 2 -38 9 -42 23 -10 37 -34 27 -251 -106 -64 -39 -84 -64 -49 -61 10 0
19 -7 21 -16 4 -19 -19 -24 -85 -19 -42 2 -77 -16 -190 -101 -99 -74 -113 -88
-89 -88 10 0 16 -9 16 -22 0 -13 3 -33 6 -45 6 -23 5 -23 -85 -23 -67 0 -91 3
-91 13 0 19 185 197 275 264 241 181 522 301 835 358 118 21 160 23 365 20
110 -2 215 -10 270 -20z m-563 -195 c-10 -13 -29 -20 -50 -20 -33 0 -34 -1
-26 -27 4 -16 9 -199 11 -408 3 -350 2 -381 -14 -392 -43 -32 -43 -37 -43 427
l0 439 63 3 c76 4 80 2 59 -22z m343 8 c30 -16 75 -60 91 -90 8 -15 14 -55 14
-92 0 -57 -4 -69 -32 -107 -43 -56 -89 -79 -156 -79 -112 0 -192 80 -192 192
0 33 7 72 14 87 20 38 80 89 114 97 15 3 32 7 37 9 15 6 87 -6 110 -17z m195
-2 c0 -8 6 -17 13 -19 7 -4 6 -6 -4 -6 -9 -1 -19 8 -22 19 -3 11 -1 20 4 20 5
0 9 -6 9 -14z m398 -105 c29 -25 52 -48 52 -53 0 -4 -27 -8 -60 -8 l-60 0 0
56 c0 31 4 54 8 52 5 -1 32 -23 60 -47z m-1370 -20 c6 0 12 -7 12 -15 0 -8 8
-17 18 -19 9 -3 -22 -5 -70 -6 -80 -1 -88 1 -88 18 0 11 6 21 13 24 10 3 70 3
115 -2z m1406 -97 c11 -4 16 -19 16 -50 l0 -45 75 2 c119 3 98 -7 -27 -14
-155 -7 -166 -4 -166 42 0 20 2 42 6 48 11 18 68 28 96 17z m176 -35 c-9 -15
-15 -17 -30 -9 -22 12 -26 36 -7 43 6 2 20 0 30 -5 14 -7 15 -13 7 -29z
m-1810 -34 l0 -55 -45 0 -45 0 0 55 0 55 45 0 45 0 0 -55z m1277 33 c-3 -8 -6
-5 -6 6 -1 11 2 17 5 13 3 -3 4 -12 1 -19z m-1061 -18 l74 0 0 -45 0 -45 -74
0 c-41 0 -81 -3 -90 -6 -13 -5 -16 3 -16 51 0 48 3 56 16 51 9 -3 49 -6 90 -6z
m1041 -52 c-2 -13 -4 -3 -4 22 0 25 2 35 4 23 2 -13 2 -33 0 -45z m761 -5 c3
-20 -1 -23 -32 -23 -29 0 -36 4 -36 19 0 37 63 40 68 4z m-1318 -64 c0 -5 -7
-6 -15 -3 -8 4 -15 13 -15 21 0 13 3 13 15 3 8 -7 15 -16 15 -21z m465 12 c-3
-6 -11 -11 -16 -11 -5 0 -4 6 3 14 14 16 24 13 13 -3z m-1165 -391 l0 -370
-45 0 -45 0 0 363 c0 200 3 367 7 370 3 4 24 7 45 7 l38 0 0 -370z m1640 330
c0 -45 18 -60 73 -60 44 0 57 16 52 63 -3 33 -1 37 20 37 20 0 24 -6 27 -37 2
-32 7 -39 28 -41 14 -2 29 -8 35 -13 5 -5 34 -9 66 -9 31 0 84 -3 118 -6 48
-6 61 -10 61 -24 0 -14 -13 -18 -67 -23 -38 -4 -91 -4 -120 0 l-52 6 -3 -84
-3 -84 -170 0 -170 0 -3 123 c-3 122 -2 123 19 117 20 -7 21 -4 17 34 l-4 41
38 0 c38 0 38 0 38 -40z m390 0 c0 -17 -7 -20 -40 -20 -33 0 -40 3 -40 20 0
17 7 20 40 20 33 0 40 -3 40 -20z m-1270 -25 c7 -8 10 -24 7 -35 -7 -28 7 -34
74 -31 l57 2 1 -126 c1 -69 0 -125 -1 -125 -2 -1 -41 -7 -88 -15 -47 -8 -98
-17 -114 -21 -25 -6 -28 -4 -23 10 4 10 7 24 7 31 0 11 21 15 88 17 81 3 87 4
90 25 4 27 -12 32 -113 35 l-70 3 -3 70 c-2 38 -1 93 3 122 6 52 7 53 39 53
19 0 39 -7 46 -15z m-972 -271 l-3 -236 -155 1 c-85 1 -154 3 -155 4 0 1 1
107 3 235 l3 232 155 0 154 0 -2 -236z m1471 -9 c-4 -16 -7 31 -6 105 l0 135
7 -105 c3 -58 3 -118 -1 -135z m-112 189 c-3 -3 -12 -4 -19 -1 -8 3 -5 6 6 6
11 1 17 -2 13 -5z m-1797 -179 l0 -155 -90 0 c-49 0 -90 3 -90 6 0 21 164 304
176 304 2 0 4 -70 4 -155z m2950 60 c0 -43 4 -54 18 -58 9 -3 -25 -5 -75 -6
l-93 -1 0 49 c0 76 1 76 80 73 l70 -4 0 -53z m172 53 c9 -7 30 -35 47 -63 l30
-50 -26 -7 c-32 -9 -50 4 -58 42 -7 34 -29 45 -49 24 -21 -20 -9 -44 23 -44
20 0 23 -2 11 -10 -8 -5 -37 -9 -65 -9 -27 0 -44 3 -37 6 6 2 12 14 13 26 0
21 1 21 9 2 8 -18 9 -17 9 8 1 16 -4 26 -11 25 -8 -2 -13 7 -13 22 0 21 6 26
35 31 56 10 65 10 82 -3z m-451 -50 c1 -24 3 -139 5 -255 l3 -213 -40 0 -39 0
0 255 0 255 35 0 c34 0 35 -1 36 -42z m-869 -13 c0 -5 -5 -11 -11 -13 -6 -2
-11 4 -11 13 0 9 5 15 11 13 6 -2 11 -8 11 -13z m-141 -23 c-5 -10 -7 -28 -4
-40 3 -12 1 -22 -4 -22 -13 0 -15 48 -2 72 6 11 13 17 16 15 2 -3 0 -14 -6
-25z m92 21 c-13 -2 -35 -2 -50 0 -16 2 -5 4 22 4 28 0 40 -2 28 -4z m-887
-43 l75 0 -3 -42 -3 -43 -87 -3 -88 -3 0 52 c0 42 3 50 16 45 9 -3 49 -6 90
-6z m2281 -52 c-3 -8 -6 -5 -6 6 -1 11 2 17 5 13 3 -3 4 -12 1 -19z m-1237
-22 c0 -8 6 -17 13 -19 7 -3 5 -6 -5 -6 -10 -1 -18 1 -18 3 0 2 -3 11 -6 20
-3 9 -1 16 5 16 6 0 11 -6 11 -14z m1318 -33 l3 -23 -203 -2 c-202 -3 -203 -3
-206 -25 -3 -23 -2 -23 125 -24 70 -1 163 0 207 1 54 1 76 -2 72 -9 -5 -7 -76
-11 -217 -11 l-209 0 0 60 0 60 173 2 c219 4 251 0 255 -29z m-900 -45 c3 -65
-5 -71 -61 -41 -18 9 -50 19 -72 22 -31 5 -41 11 -43 28 -5 36 33 54 108 51
l65 -3 3 -57z m132 30 c6 -298 6 -293 -15 -293 -19 0 -20 8 -23 158 -2 152 -2
157 18 157 14 0 20 -7 20 -22z m-1518 -20 c12 -32 -4 -38 -92 -38 -89 0 -107
7 -96 35 7 20 181 22 188 3z m883 -58 c217 -58 377 -159 520 -327 70 -81 154
-240 181 -338 25 -92 30 -313 9 -416 -76 -379 -322 -650 -690 -765 -88 -27
-382 -27 -475 0 -83 24 -215 85 -276 127 -164 113 -312 310 -372 499 -49 155
-55 385 -12 543 90 336 342 594 660 678 134 35 324 35 455 -1z m-1897 -41 c40
-14 48 -37 22 -63 -30 -31 -134 -26 -168 7 l-24 24 23 22 c26 24 94 29 147 10z
m63 1 c25 -14 24 -42 -1 -65 -23 -21 -26 -14 -7 16 10 18 9 23 -12 40 -25 20
-13 26 20 9z m875 -37 c-4 -16 -9 -39 -10 -53 -2 -14 -4 -31 -4 -37 -1 -7 -6
-13 -10 -13 -4 0 -6 16 -4 35 4 37 2 39 -50 35 -25 -1 -28 2 -28 29 0 31 0 31
56 31 l56 0 -6 -27z m1978 1 c23 -22 21 -81 -3 -94 -11 -5 -24 -10 -30 -10
-15 0 -14 93 1 108 15 15 13 15 32 -4z m201 -70 c-28 -42 -68 -26 -63 27 2 26
8 35 28 39 20 5 28 1 38 -17 11 -21 11 -28 -3 -49z m159 43 c17 -48 -24 -86
-57 -53 -25 25 0 90 32 84 9 -2 20 -16 25 -31z m-2904 -57 l0 -50 -85 0 -85 0
0 50 0 50 85 0 85 0 0 -50z m458 -137 c-16 -35 -45 -73 -58 -76 -8 -2 -37 -3
-65 -2 -27 0 -258 2 -512 3 -365 2 -461 5 -458 15 2 6 9 24 14 40 l11 27 536
0 c294 0 534 -3 532 -7z m2663 -20 c21 -57 42 -54 -446 -53 l-449 1 -28 32
c-15 18 -27 35 -28 40 0 4 212 7 470 7 l470 0 11 -27z m-3501 -213 c0 -30 -1
-30 -55 -30 -54 0 -55 0 -55 30 0 30 1 30 55 30 54 0 55 0 55 -30z m260 0 c0
-29 -2 -30 -43 -30 -52 0 -56 3 -49 35 4 22 9 25 48 25 42 0 44 -1 44 -30z
m2670 5 c0 -20 5 -25 26 -25 37 0 27 -32 -14 -42 -26 -7 -31 -12 -24 -26 14
-27 23 -323 15 -531 l-6 -190 -26 -3 c-37 -4 -36 -42 0 -46 21 -2 28 -10 31
-32 4 -26 1 -29 -30 -35 -19 -3 -39 -2 -44 3 -5 5 -10 210 -11 480 l-2 472 43
0 c38 0 42 -2 42 -25z m292 -10 c5 -43 3 -45 -38 -45 -39 0 -48 11 -39 50 6
26 11 30 40 30 30 0 33 -3 37 -35z m208 -5 l0 -40 -50 0 -50 0 0 40 0 40 50 0
50 0 0 -40z m-3050 -7 c0 -7 -4 -13 -9 -13 -5 0 -8 12 -8 26 0 18 2 22 8 13 5
-8 9 -20 9 -26z m3087 -5 c-3 -8 -6 -5 -6 6 -1 11 2 17 5 13 3 -3 4 -12 1 -19z
m-732 -8 c3 -5 -1 -10 -9 -10 -9 0 -16 5 -16 10 0 6 4 10 9 10 6 0 13 -4 16
-10z m-2998 -42 c-3 -8 -6 -5 -6 6 -1 11 2 17 5 13 3 -3 4 -12 1 -19z m323
-58 l0 -30 -85 0 -85 0 0 30 0 30 85 0 85 0 0 -30z m200 0 c0 -29 -2 -30 -45
-30 -41 0 -45 2 -45 24 0 27 11 34 58 35 29 1 32 -2 32 -29z m410 16 c0 -27
-12 -46 -30 -46 -14 0 -19 -10 -22 -45 -2 -25 0 -49 3 -53 4 -4 10 -79 13
-167 3 -88 8 -176 11 -195 l5 -35 -17 35 -18 35 -5 -80 -5 -80 43 -3 c35 -3
45 -8 52 -28 17 -44 14 -45 -87 -42 l-98 3 0 30 c0 25 4 30 21 27 l22 -3 -2
301 -1 300 -31 9 c-17 5 -48 6 -69 2 l-39 -6 0 -302 c-1 -295 -1 -302 19 -305
15 -2 20 -10 18 -32 -1 -16 -3 -29 -5 -31 -2 -1 -21 0 -44 3 l-41 4 -7 84 c-3
46 -3 208 1 359 l6 275 154 0 c125 0 153 -3 153 -14z m2564 8 c45 -7 47 -8 44
-38 -3 -30 -5 -31 -55 -34 -44 -3 -52 -6 -56 -25 -3 -21 -4 -20 -15 6 -16 37
-15 84 1 90 18 8 29 8 81 1z m-3505 -90 c-9 -12 -6 -14 20 -14 17 0 31 -4 31
-10 0 -8 -31 -12 -67 -9 -10 0 -6 34 9 84 l13 40 3 -38 c2 -21 -2 -45 -9 -53z
m3739 54 l-3 -33 -63 -3 c-44 -2 -62 -7 -59 -15 2 -7 20 -11 43 -10 l39 2 -34
-9 c-51 -12 -61 -5 -61 51 l0 49 71 0 70 0 -3 -32z m-3250 -425 l2 -363 -25 0
-25 0 0 366 0 365 23 -3 22 -3 3 -362z m3002 262 c0 -18 -7 -28 -26 -36 -24
-9 -26 -22 -3 -25 5 -1 14 -2 19 -3 7 -1 9 -96 8 -278 l-3 -278 -33 -3 -33 -3
1 290 c1 160 -1 294 -3 298 -3 5 -3 20 0 36 5 23 10 27 39 27 30 0 34 -3 34
-25z m206 9 c-3 -9 -6 -155 -6 -325 l0 -309 -22 0 c-13 0 -28 4 -34 8 -7 5
-11 93 -10 284 1 209 -2 280 -11 289 -7 7 -13 26 -13 41 0 27 2 28 51 28 43 0
50 -3 45 -16z m-3630 -14 c19 0 24 -5 24 -25 0 -18 -5 -25 -20 -25 -13 0 -20
-7 -20 -20 0 -10 -6 -23 -14 -27 -7 -4 -16 -32 -19 -60 -5 -43 -3 -53 9 -53
13 0 15 -17 14 -97 -2 -141 -3 -133 25 -133 21 0 25 -5 25 -30 0 -27 -3 -30
-34 -30 l-33 0 -7 63 c-3 34 -10 80 -14 102 -3 22 -6 69 -6 104 1 42 -2 59 -8
50 -6 -10 -7 -6 -3 11 4 14 11 29 16 35 13 14 11 25 -5 25 -18 0 -26 22 -26
69 0 47 7 54 44 47 16 -3 39 -6 52 -6z m200 -75 c2 -11 3 -137 2 -280 l-3
-260 -32 -3 -33 -3 0 276 c0 293 4 325 41 302 11 -6 22 -21 25 -32z m3341
-167 c-3 -8 -6 -5 -6 6 -1 11 2 17 5 13 3 -3 4 -12 1 -19z m0 -70 c-2 -13 -4
-5 -4 17 -1 22 1 32 4 23 2 -10 2 -28 0 -40z m0 -171 c-2 -23 -3 -1 -3 48 0
50 1 68 3 42 2 -26 2 -67 0 -90z m124 -114 c-12 -20 -14 -14 -5 12 4 9 9 14
11 11 3 -2 0 -13 -6 -23z m-124 -5 c-3 -8 -6 -5 -6 6 -1 11 2 17 5 13 3 -3 4
-12 1 -19z m98 -105 c-4 -10 -12 -30 -17 -45 l-10 -28 -465 0 -465 0 32 40 32
40 436 3 c240 1 443 3 451 5 9 1 11 -4 6 -15z m-2582 -27 c15 -19 27 -37 27
-40 0 -4 -231 -6 -513 -6 l-513 0 -12 33 c-7 18 -12 36 -12 40 0 4 224 7 498
7 l497 0 28 -34z m1594 -108 c28 -26 29 -43 4 -60 -10 -7 -46 -39 -81 -70 -34
-32 -68 -58 -76 -58 -7 0 -22 13 -33 28 l-20 28 22 14 c12 8 26 13 30 12 5 -1
6 2 3 7 -5 8 110 120 123 121 3 0 15 -10 28 -22z m-1517 -218 l0 -230 -35 0
-35 0 0 230 0 230 35 0 35 0 0 -230z m-692 115 l1 -35 -54 0 c-54 0 -55 1 -55
28 0 38 5 42 60 42 47 0 47 0 48 -35z m180 18 c4 -10 8 -36 7 -58 0 -38 -2
-40 -32 -43 l-33 -3 0 60 c0 58 1 61 25 61 13 0 28 -8 33 -17z m341 -372 c-1
-215 2 -395 6 -400 7 -12 -14 -14 -39 -5 -15 6 -16 46 -16 378 1 205 3 382 7
394 3 13 13 22 24 22 17 0 18 -18 18 -389z m2182 368 c22 -22 21 -37 -4 -53
-22 -14 -71 4 -75 27 -9 44 43 62 79 26z m-349 -76 c21 -20 38 -40 38 -44 0
-11 -83 -89 -95 -89 -12 0 -75 64 -75 76 0 9 81 94 89 94 3 0 22 -17 43 -37z
m-1383 -38 c2 -3 -23 -5 -56 -5 l-61 0 1 34 1 34 55 -29 c30 -16 57 -32 60
-34z m-609 35 c0 -5 -5 -10 -11 -10 -5 0 -7 5 -4 10 3 6 8 10 11 10 2 0 4 -4
4 -10z m-312 -91 c3 -77 4 -77 -88 -75 l-65 1 -3 59 c-5 87 -4 87 80 84 l73
-3 3 -66z m2642 52 c23 -6 25 -12 26 -64 1 -31 -1 -57 -6 -57 -4 0 -31 25 -60
56 -41 44 -50 58 -39 65 16 10 43 10 79 0z m-2330 -72 c0 -39 -1 -40 -32 -37
-26 2 -34 8 -36 26 -6 37 5 52 38 52 28 0 30 -2 30 -41z m2534 35 c10 -4 16
-18 16 -41 0 -34 0 -34 -42 -31 -50 4 -61 25 -29 57 22 22 30 24 55 15z
m-2705 -98 c-1 -118 -10 -160 -43 -193 l-26 -26 0 65 c0 36 -3 106 -6 156 l-7
92 41 0 42 0 -1 -94z m1021 52 c76 -17 126 -21 248 -21 122 0 152 -2 152 -13
0 -12 -68 -14 -400 -14 l-400 0 0 29 c0 38 4 38 170 40 107 1 156 -4 230 -21z
m650 -12 c0 -32 -2 -34 -41 -38 -22 -2 -42 -2 -45 1 -2 2 -4 19 -4 38 0 33 1
33 45 33 44 0 45 0 45 -34z m228 -3 l3 -33 -85 0 -86 0 0 28 c0 16 3 32 7 36
4 4 41 5 83 4 l75 -3 3 -32z m-378 -27 c0 -37 -4 -56 -14 -59 -22 -9 -36 14
-36 59 0 41 5 47 43 53 4 0 7 -23 7 -53z m804 27 c-4 -13 64 -86 236 -256 213
-210 239 -240 230 -257 -20 -37 -52 -24 -125 50 -53 54 -74 69 -90 64 -16 -4
-17 -3 -5 5 12 9 -17 41 -155 176 -93 90 -174 165 -179 165 -6 0 3 14 19 30
16 17 35 28 42 26 7 -3 15 -1 18 4 10 15 14 12 9 -7z m-2164 -73 c17 -9 18
-24 17 -210 -1 -110 -5 -200 -9 -200 -3 0 -20 12 -37 26 l-31 26 0 173 c0 155
2 175 18 184 21 13 20 13 42 1z m-364 -17 c14 -15 17 -83 3 -83 -9 0 -89 82
-89 92 0 13 71 6 86 -9z m2849 -23 c3 -5 1 -10 -4 -10 -6 0 -11 5 -11 10 0 6
2 10 4 10 3 0 8 -4 11 -10z m-105 -76 c0 -2 -9 0 -20 6 -11 6 -20 13 -20 16 0
2 9 0 20 -6 11 -6 20 -13 20 -16z m-1940 -23 c0 -48 -13 -81 -32 -81 -18 0
-19 -8 -16 -170 l3 -170 -44 0 c-80 0 -81 3 -81 237 l0 203 85 0 c76 0 85 -2
85 -19z m430 -33 l0 -53 -158 0 c-134 0 -156 -2 -153 -15 8 -35 10 -274 2
-250 -8 22 -9 20 -10 -16 l-1 -41 144 -2 c168 -3 153 -17 154 144 1 61 2 121
3 135 5 42 14 -191 11 -242 l-4 -48 -141 0 c-78 0 -159 -3 -179 -6 l-38 -7 0
227 0 226 185 0 185 0 0 -52z m168 -170 l-3 -223 -52 -3 -53 -3 0 225 0 226
55 0 55 0 -2 -222z m372 179 c0 -36 -3 -43 -20 -44 -22 -2 -27 12 -7 21 6 2
-37 4 -98 3 l-110 -2 -2 -190 -2 -190 -33 0 -33 0 -1 215 c-1 118 0 218 3 223
2 4 71 7 154 7 l149 0 0 -43z m88 -9 c-2 -41 -7 -54 -20 -56 -15 -3 -18 5 -18
52 0 50 2 56 21 56 18 0 20 -5 17 -52z m92 7 c0 -34 -3 -43 -14 -39 -16 6 -31
58 -21 74 3 5 13 10 21 10 10 0 14 -12 14 -45z m115 -172 l0 -213 22 0 c20 0
23 5 23 41 0 22 3 38 8 36 4 -3 6 47 4 110 -2 74 1 120 8 127 7 7 10 -35 8
-154 l-3 -165 -55 -7 c-30 -3 -58 -4 -62 -2 -10 6 -11 428 -1 438 4 4 16 6 28
4 19 -3 20 -9 20 -215z m66 160 c-4 -28 -6 -32 -9 -15 -3 22 3 52 11 52 1 0 1
-17 -2 -37z m131 0 l38 -37 0 -136 0 -136 -39 -22 c-21 -12 -40 -22 -42 -22
-2 0 -4 88 -4 195 0 107 2 195 5 195 2 0 21 -17 42 -37z m568 -30 c30 -32 39
-44 20 -28 -36 31 -80 76 -80 82 0 8 9 0 60 -54z m-1122 10 c-10 -2 -28 -2
-40 0 -13 2 -5 4 17 4 22 1 32 -1 23 -4z m1267 -155 l50 -53 -55 50 c-30 28
-57 51 -59 53 -2 1 0 2 5 2 5 0 32 -24 59 -52z m-532 -55 c-15 -13 -33 -23
-38 -23 -8 0 -11 58 -5 109 0 3 16 -11 36 -30 l35 -34 -28 -22z m-598 -242
c-11 -5 -67 -17 -125 -27 -160 -29 -491 -26 -660 5 -69 12 -127 25 -129 27 -2
2 207 4 465 3 258 0 460 -4 449 -8z"/>
<path d="M3790 4819 c0 -5 5 -7 10 -4 6 3 10 8 10 11 0 2 -4 4 -10 4 -5 0 -10
-5 -10 -11z"/>
<path d="M3797 4786 c-4 -10 -5 -21 -2 -24 9 -9 17 6 13 25 -3 17 -4 17 -11
-1z"/>
<path d="M1889 4304 c-14 -17 -5 -42 17 -51 20 -7 47 19 39 39 -9 22 -42 29
-56 12z"/>
<path d="M4463 4393 c-7 -2 -13 -16 -13 -29 0 -19 5 -24 26 -24 22 0 25 4 22
27 -3 27 -14 35 -35 26z"/>
<path d="M3050 4051 c-173 -37 -320 -120 -442 -250 -406 -433 -285 -1116 243
-1366 185 -87 410 -102 599 -39 227 76 439 276 536 505 66 159 85 388 44 557
-71 297 -293 522 -585 593 -104 25 -277 25 -395 0z m517 -222 c90 -44 211
-183 261 -299 43 -101 67 -294 43 -354 -7 -18 -23 10 -75 137 -18 45 -37 54
-68 33 -31 -22 -74 -20 -127 6 -93 46 -240 33 -331 -29 -42 -28 -41 -28 -70
-3 -77 67 -257 80 -359 27 -60 -32 -105 -31 -135 1 -15 17 -14 22 10 73 63
130 153 234 267 309 137 91 231 116 436 119 88 1 112 -2 148 -20z m243 -71
c61 -66 128 -191 155 -293 26 -94 31 -275 11 -376 -73 -359 -355 -619 -719
-663 -44 -5 -49 -4 -59 19 -6 14 -9 27 -6 30 3 3 41 10 84 15 233 26 461 188
566 400 61 124 78 190 85 331 9 191 -36 352 -139 488 -32 42 -37 55 -27 62 21
13 26 11 49 -13z m-707 -497 c74 -36 80 -52 81 -202 1 -71 -2 -129 -5 -129 -4
0 -13 7 -20 17 -8 9 -41 29 -74 45 -52 24 -72 28 -145 28 -48 -1 -103 -7 -125
-15 -22 -8 -45 -15 -52 -15 -8 0 2 39 27 109 65 184 73 192 200 188 44 -2 80
-10 113 -26z m457 16 c14 -8 35 -20 46 -27 20 -12 25 -11 55 14 31 26 34 27
46 10 14 -20 113 -268 113 -284 0 -13 -49 -32 -65 -26 -7 2 -17 24 -23 49 -22
86 -73 207 -88 207 -28 0 -26 -32 6 -126 18 -52 30 -97 27 -101 -4 -3 -24 2
-47 11 -46 18 -165 21 -222 6 -20 -6 -60 -26 -88 -45 -29 -19 -54 -35 -56 -35
-2 0 -4 55 -4 122 l0 121 44 43 c24 23 63 49 87 57 55 19 136 21 169 4z m-790
-7 c12 -7 6 -32 -35 -159 -43 -130 -53 -151 -71 -151 -11 0 -29 6 -39 14 -20
15 -25 -3 55 201 15 39 30 78 33 88 7 18 33 22 57 7z"/>
<path d="M3204 3766 c-11 -28 0 -61 21 -61 16 0 20 7 20 35 0 25 -5 36 -18 38
-9 2 -20 -3 -23 -12z"/>
<path d="M3505 3677 c-20 -16 -15 -44 11 -54 23 -9 51 23 38 44 -14 23 -27 26
-49 10z"/>
<path d="M3034 3656 c-15 -38 81 -163 142 -186 17 -7 24 -17 24 -35 0 -35 47
-36 56 -1 3 14 18 29 36 37 63 26 135 110 122 142 -11 31 -34 26 -83 -17 -50
-45 -95 -62 -130 -51 -11 3 -45 33 -75 65 -54 60 -82 73 -92 46z"/>
<path d="M3597 3593 c-12 -12 -7 -41 8 -47 22 -8 45 4 45 24 0 23 -37 39 -53
23z"/>
<path d="M3654 3485 c-8 -21 2 -45 19 -45 20 0 40 27 33 45 -7 19 -45 20 -52
0z"/>
<path d="M1472 4050 c0 -14 2 -19 5 -12 2 6 2 18 0 25 -3 6 -5 1 -5 -13z"/>
<path d="M1262 3000 c0 -14 2 -19 5 -12 2 6 2 18 0 25 -3 6 -5 1 -5 -13z"/>
<path d="M1257 2949 c4 -13 8 -18 11 -10 2 7 -1 18 -6 23 -8 8 -9 4 -5 -13z"/>
<path d="M2653 1720 c0 -25 2 -35 4 -22 2 12 2 32 0 45 -2 12 -4 2 -4 -23z"/>
<path d="M1102 4528 c-7 -7 -12 -18 -12 -25 0 -15 30 -32 48 -26 17 7 15 50
-4 57 -20 8 -18 8 -32 -6z"/>
<path d="M989 4419 c-23 -23 -24 -42 -3 -63 23 -23 51 -20 69 8 31 47 -26 95
-66 55z"/>
<path d="M5220 2285 c-14 -17 -5 -51 16 -59 22 -8 54 11 54 32 0 38 -46 56
-70 27z"/>
<path d="M5122 2173 c-13 -26 -4 -43 23 -43 13 0 25 6 28 13 6 17 -11 47 -28
47 -8 0 -18 -8 -23 -17z"/>
<path d="M1135 2111 c-6 -5 -80 -46 -165 -91 -85 -45 -191 -102 -235 -125 -44
-23 -104 -55 -133 -70 -29 -15 -55 -31 -58 -36 -7 -13 48 -89 65 -89 7 0 55
22 105 49 l92 49 11 -41 c31 -115 161 -197 287 -180 46 6 49 5 41 -13 -4 -10
-10 -44 -12 -75 -6 -69 16 -117 81 -177 57 -52 120 -81 198 -89 l58 -6 0 36
c0 57 -8 67 -51 67 -78 0 -169 71 -169 132 0 33 28 88 45 88 5 0 69 -52 140
-115 72 -63 134 -115 139 -115 6 0 24 12 40 27 19 17 15 10 -10 -17 -62 -68
-144 -171 -144 -180 0 -11 77 -60 94 -60 8 0 36 26 62 58 147 175 175 202 208
202 33 0 96 -18 96 -27 0 -6 -248 -451 -266 -478 -8 -11 -14 -25 -14 -32 0
-15 97 -66 110 -58 5 3 30 44 55 91 l47 85 41 -40 c97 -97 250 -107 347 -24
l40 35 0 -59 c0 -73 22 -112 87 -150 43 -25 57 -28 135 -28 75 0 88 -2 88 -17
0 -18 47 -38 90 -38 26 0 28 4 65 139 l38 138 37 -37 c26 -26 63 -47 121 -68
121 -45 154 -64 157 -89 5 -36 -38 -57 -101 -50 -59 7 -99 33 -107 68 -5 20
-14 25 -63 33 -70 11 -80 4 -67 -46 22 -78 96 -129 214 -148 115 -18 207 11
242 76 10 19 19 34 19 34 1 0 24 -22 52 -49 83 -80 196 -98 293 -48 46 24 48
24 53 6 4 -15 14 -19 49 -19 78 0 77 -12 24 287 -26 147 -50 276 -53 286 -4
15 0 17 21 11 83 -21 133 72 58 109 -29 14 -217 23 -225 10 -3 -5 4 -57 15
-116 11 -59 18 -110 16 -112 -2 -3 -20 0 -39 5 -45 13 -150 13 -186 -1 -15 -5
-44 -26 -63 -44 l-35 -35 -29 31 c-74 79 -225 106 -337 61 -23 -9 -26 -8 -22
7 3 13 -8 21 -52 35 -32 10 -61 14 -66 9 -4 -4 -26 -75 -49 -158 -23 -82 -47
-156 -55 -164 -15 -16 -93 -26 -130 -17 -37 9 -65 41 -65 74 0 15 15 82 34
148 53 188 52 182 19 195 -57 22 -92 23 -99 3 -15 -48 -17 -49 -27 -16 -22 73
-131 143 -224 146 -39 1 -53 5 -53 16 -1 20 -52 75 -88 94 -17 9 -48 18 -70
22 -26 4 -39 11 -36 19 5 13 -66 65 -89 65 -7 0 -33 -24 -57 -52 -24 -29 -39
-44 -35 -33 5 11 10 43 13 71 4 61 -11 97 -66 150 -56 55 -107 76 -190 82 -62
4 -72 7 -67 21 29 73 6 150 -62 211 -26 22 -57 43 -70 46 -25 7 -29 14 -13 30
7 7 1 22 -17 47 -27 35 -59 47 -78 28z m62 -37 c16 -25 16 -27 0 -39 -25 -18
-22 -23 23 -36 50 -15 112 -68 134 -113 21 -45 20 -103 -3 -147 l-19 -35 58 9
c88 14 156 -9 228 -78 l56 -55 -24 -25 c-30 -32 -46 -32 -54 0 -16 65 -132
104 -211 70 l-40 -16 55 -47 c128 -109 127 -109 105 -126 -11 -8 -25 -16 -32
-16 -7 0 -49 32 -94 72 -91 80 -97 81 -136 12 -22 -38 -33 -41 -13 -3 6 11 8
24 4 30 -9 16 -35 -47 -28 -69 5 -14 4 -15 -5 -2 -9 13 -11 13 -11 -2 0 -10 5
-18 11 -18 5 0 7 -5 3 -11 -11 -19 -24 12 -24 59 0 30 -4 41 -12 36 -7 -4 -8
-3 -4 4 12 19 26 14 26 -10 0 -16 3 -19 11 -11 8 8 7 17 -2 34 -12 23 -11 23
6 9 17 -14 18 -13 12 3 -4 10 -7 23 -7 28 0 6 -4 7 -10 4 -14 -9 -12 1 3 13
10 8 13 6 14 -11 1 -12 7 -23 13 -25 5 -2 8 -8 5 -12 -3 -5 -1 -11 5 -15 15
-9 12 8 -10 59 -10 25 -17 46 -15 46 3 0 -1 16 -9 35 -15 35 -15 35 15 58 68
49 79 129 26 182 -30 30 -88 55 -129 55 -10 0 -18 6 -18 13 0 6 -7 24 -15 40
-14 27 -13 28 23 52 48 31 68 31 89 -1z m-279 -159 c1 -28 0 -29 -14 -11 -16
22 -19 14 -5 -13 9 -15 6 -17 -22 -13 -29 5 -31 3 -18 -12 12 -14 11 -16 -3
-16 -9 0 -16 4 -16 10 0 5 -17 -2 -37 -16 -20 -13 -43 -22 -50 -20 -7 3 -15 1
-18 -4 -8 -13 14 -23 28 -12 19 14 49 23 42 12 -3 -6 -11 -10 -17 -10 -5 0
-22 -8 -36 -18 -29 -20 -62 -34 -62 -26 0 2 12 9 26 15 15 5 25 12 22 15 -3 2
-26 -4 -52 -15 -25 -11 -48 -21 -51 -21 -3 0 -11 0 -17 0 -9 0 -8 -3 2 -9 8
-6 19 -7 25 -3 5 3 4 -2 -4 -11 -7 -9 -21 -17 -30 -16 -12 0 -11 2 4 9 20 9
20 9 0 9 -11 1 -28 10 -38 21 -16 20 -16 21 0 27 10 4 20 9 23 12 3 4 28 19
57 34 37 20 54 24 59 16 4 -7 3 -10 -2 -6 -5 3 -18 -2 -29 -10 -19 -15 -19
-15 5 -8 38 12 104 51 108 65 3 8 -9 4 -26 -8 -16 -12 -36 -22 -44 -22 -15 0
45 41 66 44 8 1 22 8 32 16 11 9 15 10 10 3 -4 -7 -2 -13 3 -13 6 0 11 6 11
14 0 17 16 25 46 23 16 -1 21 -8 22 -32z m279 18 c39 -18 73 -65 73 -100 0
-32 -55 -90 -111 -119 -64 -32 -154 -34 -193 -3 -39 31 -59 75 -52 115 6 29
16 38 89 78 91 49 137 56 194 29z m-314 -123 c7 0 6 -4 -3 -10 -21 -13 -33
-12 -24 2 5 8 2 9 -10 5 -11 -4 -15 -3 -11 4 4 6 14 8 22 5 8 -3 20 -6 26 -6z
m-16 -67 c-3 -10 -5 -4 -5 12 0 17 2 24 5 18 2 -7 2 -21 0 -30z m31 -10 c-5
-7 -7 -16 -5 -20 3 -5 -3 -9 -13 -10 -11 -1 -23 3 -26 9 -4 6 -2 8 4 4 6 -3
14 -1 19 6 8 14 9 18 12 46 2 15 3 14 10 -3 5 -11 4 -25 -1 -32z m79 -52 c31
-16 113 -14 163 4 50 18 53 18 45 6 -3 -5 0 -13 6 -17 8 -4 7 -9 -2 -15 -10
-6 -11 -9 -1 -9 6 0 12 -4 12 -10 0 -5 -7 -6 -17 -3 -10 4 -14 2 -10 -4 24
-38 -147 -53 -213 -18 -41 21 -99 75 -82 75 7 0 12 -5 12 -11 0 -6 7 -9 15 -5
8 3 14 1 12 -5 -1 -6 8 -15 21 -20 15 -6 21 -5 17 1 -3 6 -1 10 4 10 6 0 11 5
11 12 0 6 -3 9 -6 5 -7 -6 -19 4 -44 38 -13 18 -12 18 10 -1 14 -12 35 -27 47
-33z m563 -81 c53 -38 62 -118 15 -136 -16 -7 -175 124 -171 141 8 30 112 26
156 -5z m-365 -178 c0 -19 46 -82 56 -77 5 4 18 0 27 -8 17 -16 72 -40 72 -32
0 2 -13 11 -29 19 -16 9 -31 23 -35 32 -4 10 4 7 25 -10 17 -14 37 -26 46 -26
10 0 13 -6 9 -17 -4 -10 -4 -15 -1 -12 8 9 108 -26 113 -39 5 -17 -75 -15
-129 3 -47 16 -153 101 -144 115 3 5 1 10 -4 12 -5 1 -13 17 -17 33 -4 17 -3
27 2 22 5 -5 9 -12 9 -15z m42 -18 c-3 -4 -2 -16 4 -28 10 -20 9 -20 -5 -2
-14 17 -13 36 1 36 4 0 3 -3 0 -6z m33 -14 c0 -5 -2 -10 -4 -10 -3 0 -8 5 -11
10 -3 6 -1 10 4 10 6 0 11 -4 11 -10z m363 -168 l39 -17 -47 -57 -47 -57 -39
22 c-21 12 -39 25 -39 30 0 10 80 97 89 96 3 0 23 -8 44 -17z m2024 -107 c73
-402 78 -443 59 -464 -17 -19 -17 -20 5 -23 17 -2 25 -12 30 -36 l7 -33 -47 3
c-39 3 -46 6 -49 25 -4 26 -17 30 -26 8 -9 -25 -86 -55 -142 -55 -79 0 -137
25 -187 80 -108 120 -99 315 15 377 50 26 161 24 216 -4 l42 -23 0 25 c0 13
-9 71 -20 127 -11 57 -20 104 -20 105 0 5 39 11 65 10 l30 -2 22 -120z m95 98
c29 -26 23 -59 -14 -72 -37 -13 -72 4 -81 39 -11 44 57 68 95 33z m-1583 -19
c49 -20 71 -51 71 -104 0 -73 -71 -170 -136 -186 -62 -16 -164 53 -164 111 0
34 78 171 104 183 31 16 81 14 125 -4z m-231 -59 c1 -1 -25 -25 -60 -53 -34
-28 -64 -50 -66 -48 -2 2 11 29 28 60 30 52 33 55 63 49 18 -3 33 -7 35 -8z
m14 -27 c-7 -7 -12 -8 -12 -2 0 14 12 26 19 19 2 -3 -1 -11 -7 -17z m839 -49
c26 -8 37 -17 35 -28 -5 -31 -27 -106 -38 -135 -11 -27 -12 -27 -25 -10 -7 10
-13 13 -13 5 0 -8 -6 -7 -17 5 -16 16 -18 14 -31 -25 -22 -67 -23 -42 -1 50
23 100 39 149 46 149 3 0 23 -5 44 -11z m300 -35 c63 -19 129 -80 129 -119 0
-22 -4 -25 -41 -25 -36 0 -41 3 -51 30 -5 17 -22 37 -37 44 -75 38 -181 22
-181 -27 0 -35 25 -52 124 -87 151 -53 196 -92 196 -167 0 -33 -7 -50 -30 -75
l-29 -33 -30 32 c-26 27 -28 33 -16 43 22 18 18 56 -6 79 -12 11 -43 28 -70
37 -27 10 -47 20 -44 22 2 2 18 -1 36 -7 29 -10 30 -9 18 6 -8 9 -9 14 -4 11
6 -3 19 -2 30 2 19 7 18 9 -8 19 -15 6 -41 12 -58 13 -17 1 -33 6 -35 10 -3 4
-15 8 -27 7 -21 0 -21 -1 -2 -9 11 -5 15 -9 8 -9 -20 -2 -43 11 -37 20 9 14
-13 10 -29 -5 -12 -13 -18 -11 -46 18 -33 34 -42 87 -20 128 28 52 155 73 260
42z m-1 -89 c10 -9 21 -27 24 -41 4 -16 13 -24 29 -24 53 0 65 -10 69 -56 2
-24 2 -44 0 -44 -1 0 -19 11 -40 25 -21 13 -69 35 -108 49 -127 43 -157 68
-121 105 17 18 123 8 147 -14z m-780 8 c0 -5 -14 -24 -30 -43 -16 -19 -30 -30
-30 -24 0 6 12 25 28 42 29 34 32 36 32 25z m45 -2 c3 -5 1 -12 -5 -16 -5 -3
-10 1 -10 9 0 18 6 21 15 7z m-19 -77 c-3 -25 -8 -49 -11 -52 -4 -4 -4 13 -1
38 2 25 5 48 5 53 1 4 4 7 7 7 3 0 3 -21 0 -46z m75 -19 c-8 -46 -9 -47 -10
-13 -1 34 8 73 15 66 2 -2 -1 -26 -5 -53z m-353 20 c0 -28 -13 -25 -21 5 -3
12 0 20 8 20 7 0 13 -11 13 -25z m168 -10 c-11 -8 -25 -15 -30 -15 -6 0 -2 7
8 15 11 8 25 15 30 15 6 0 2 -7 -8 -15z m523 -89 c-6 -26 -13 -45 -16 -43 -2
3 1 26 8 51 6 26 13 45 16 43 2 -3 -1 -26 -8 -51z m206 26 c-3 -3 -11 0 -18 7
-9 10 -8 11 6 5 10 -3 15 -9 12 -12z m75 8 c-8 -5 -19 -10 -25 -10 -5 0 -3 5
5 10 8 5 20 10 25 10 6 0 3 -5 -5 -10z m-45 -10 c3 -5 1 -10 -4 -10 -6 0 -11
5 -11 10 0 6 2 10 4 10 3 0 8 -4 11 -10z m-516 -58 c3 -1 -1 -8 -8 -15 -8 -8
-11 -8 -9 -1 2 7 -9 23 -24 37 -16 14 -28 29 -28 33 0 4 15 -5 32 -22 18 -16
35 -30 37 -32z m-110 20 c-1 -15 -2 -15 -6 1 -2 9 -9 14 -15 11 -7 -4 -8 -2
-4 5 10 15 26 4 25 -17z m285 -16 c-10 -8 -21 -12 -23 -10 -3 2 4 11 15 18 10
8 21 12 23 10 3 -2 -4 -11 -15 -18z m-224 -6 c0 -5 -5 -10 -11 -10 -5 0 -7 5
-4 10 3 6 8 10 11 10 2 0 4 -4 4 -10z m-3 -23 c7 0 10 -4 7 -9 -3 -4 33 -5 80
-2 79 6 86 5 86 -11 0 -10 -3 -15 -6 -12 -4 3 -15 2 -26 -4 -26 -14 -122 5
-162 32 -17 11 -22 18 -11 14 11 -4 25 -8 32 -8z m397 -2 c-4 -8 -7 -15 -9
-15 -2 0 -5 7 -9 15 -3 9 0 15 9 15 9 0 12 -6 9 -15z m81 -20 c18 -45 63 -65
146 -65 54 0 60 -2 54 -17 -4 -10 -7 -26 -7 -37 1 -17 -5 -18 -70 -12 -82 7
-142 32 -178 71 l-25 27 24 -7 c18 -5 22 -4 16 5 -6 9 -4 11 5 5 9 -6 10 -2 5
15 -5 15 -4 20 4 16 15 -10 14 7 -1 22 -9 9 -9 12 0 12 6 0 18 -16 27 -35z
m-265 10 c0 -2 -6 -5 -13 -8 -8 -3 -14 1 -14 8 0 7 6 11 14 8 7 -3 13 -6 13
-8z m94 -24 c-4 -17 -9 -30 -11 -27 -3 2 -2 19 2 36 9 41 17 33 9 -9z m119 9
c-3 -11 -7 -20 -8 -20 -1 0 -5 9 -8 20 -3 12 0 20 8 20 8 0 11 -8 8 -20z
m-176 -47 c3 -7 -3 -9 -16 -6 -12 3 -21 10 -21 15 0 13 32 6 37 -9z m38 -3 c3
-5 -1 -10 -9 -10 -9 0 -16 5 -16 10 0 6 4 10 9 10 6 0 13 -4 16 -10z"/>
<path d="M866 1931 c-4 -5 3 -7 14 -4 23 6 26 13 6 13 -8 0 -17 -4 -20 -9z"/>
<path d="M775 1850 c-3 -6 1 -7 9 -4 18 7 21 14 7 14 -6 0 -13 -4 -16 -10z"/>
<path d="M608 1792 c-20 -13 -24 -22 -18 -32 8 -13 10 -12 10 3 0 9 7 17 15
17 8 0 15 5 15 11 0 6 9 9 20 6 11 -3 18 -1 14 4 -8 14 -26 11 -56 -9z"/>
<path d="M3320 980 c-13 -9 -13 -10 0 -10 11 0 12 -2 3 -8 -8 -5 -9 -13 -3
-22 8 -13 10 -12 10 3 0 10 5 15 10 12 6 -3 10 -1 10 5 0 6 5 8 12 4 7 -4 8
-3 4 4 -4 6 -14 8 -23 5 -11 -4 -14 -3 -9 5 9 14 6 15 -14 2z"/>
<path d="M3289 953 c-1 -5 -2 -15 -3 -23 0 -8 -6 -14 -13 -13 -7 2 -10 -4 -6
-13 8 -21 25 -3 28 30 3 23 -3 39 -6 19z"/>
<path d="M3384 949 c-16 -5 -41 -20 -55 -35 -20 -22 -24 -35 -24 -92 0 -55 6
-76 29 -120 38 -68 77 -92 149 -92 49 0 61 4 92 31 31 27 35 37 35 78 -1 58
-24 166 -40 186 -6 8 -8 20 -4 27 6 10 5 11 -8 1 -20 -17 -31 -4 -15 16 11 14
10 14 -5 2 -14 -10 -25 -11 -49 -2 -37 13 -62 13 -105 0z m148 -41 c31 -24 35
-34 51 -119 19 -109 12 -129 -51 -156 -109 -46 -205 40 -206 185 -1 60 1 65
33 94 31 27 39 30 87 26 36 -3 63 -12 86 -30z"/>
<path d="M3250 780 c0 -5 5 -10 11 -10 5 0 7 5 4 10 -3 6 -8 10 -11 10 -2 0
-4 -4 -4 -10z"/>
<path d="M2850 850 c0 -5 5 -10 11 -10 5 0 7 5 4 10 -3 6 -8 10 -11 10 -2 0
-4 -4 -4 -10z"/>
<path d="M2478 683 c12 -2 32 -2 45 0 12 2 2 4 -23 4 -25 0 -35 -2 -22 -4z"/>
<path d="M2860 673 c0 -6 8 -17 18 -24 16 -13 16 -13 2 6 -8 11 -16 22 -17 24
-2 2 -3 0 -3 -6z"/>
<path d="M2840 635 c-14 -16 -3 -20 19 -6 8 5 9 11 3 15 -5 3 -15 -1 -22 -9z"/>
<path d="M4165 1386 c-29 -29 -24 -57 14 -87 29 -23 72 -20 103 8 25 22 23 49
-7 78 -32 33 -78 33 -110 1z m93 -12 c44 -31 14 -79 -46 -72 -35 4 -62 49 -43
72 17 20 60 21 89 0z"/>
<path d="M4290 1228 c-19 -11 -57 -29 -85 -39 -38 -14 -49 -22 -48 -37 2 -17
-2 -18 -39 -12 -105 20 -223 -42 -244 -126 -21 -81 35 -225 112 -293 52 -46
136 -81 193 -81 54 0 127 28 161 61 28 28 29 29 40 10 27 -51 -4 -111 -66
-131 -36 -12 -134 -9 -166 4 -14 6 -20 -1 -31 -41 -8 -26 -11 -52 -7 -56 4 -4
36 -12 72 -18 50 -8 80 -7 137 5 123 26 190 85 199 175 4 44 -2 59 -76 203
-44 85 -99 190 -123 234 -23 43 -37 75 -32 69 6 -5 69 -92 142 -192 73 -101
139 -183 147 -183 17 0 94 38 94 46 0 4 -188 267 -280 392 -28 38 -52 40 -100
10z m78 -9 c1 -8 -11 -25 -28 -38 -30 -22 -32 -22 -45 -4 -20 25 -19 27 18 46
36 18 51 17 55 -4z m-106 -64 c10 -23 8 -28 -28 -59 -37 -33 -42 -34 -100 -29
-106 10 -161 -37 -151 -127 6 -48 5 -51 -29 -76 -19 -15 -37 -25 -39 -22 -2 2
-11 28 -18 58 -33 127 30 215 161 227 39 4 69 1 95 -10 20 -9 37 -14 37 -12 0
2 -4 15 -10 30 -8 22 -7 27 13 35 38 15 57 11 69 -15z m-92 -111 c35 -14 46
-28 85 -99 51 -92 56 -131 23 -163 -53 -49 -107 -53 -169 -14 -83 53 -135 191
-94 250 28 39 94 50 155 26z m-10 -550 c0 -2 -7 -4 -15 -4 -8 0 -15 4 -15 10
0 5 7 7 15 4 8 -4 15 -8 15 -10z"/>
<path d="M3731 1059 c-24 -5 -46 -10 -48 -13 -4 -3 120 -374 152 -458 11 -28
125 -20 125 8 0 19 -151 446 -163 462 -5 6 -12 12 -16 11 -3 -1 -26 -5 -50
-10z m98 -125 c22 -64 41 -121 41 -128 0 -6 -16 -24 -35 -39 l-35 -28 -9 23
c-21 58 -91 266 -91 271 0 6 31 13 66 16 18 1 27 -15 63 -115z"/>
</g>
</svg>
