<?xml version="1.0" encoding="UTF-8"?>
<!DOCTYPE svg PUBLIC "-//W3C//DTD SVG 1.1//EN" "http://www.w3.org/Graphics/SVG/1.1/DTD/svg11.dtd">
<svg xmlns="http://www.w3.org/2000/svg" version="1.1" width="32px" height="32px" style="shape-rendering:geometricPrecision; text-rendering:geometricPrecision; image-rendering:optimizeQuality; fill-rule:evenodd; clip-rule:evenodd" xmlns:xlink="http://www.w3.org/1999/xlink">
<g><path style="opacity:0.447" fill="#000000" d="M 31.5,7.5 C 31.5,14.1667 31.5,20.8333 31.5,27.5C 20.8333,27.5 10.1667,27.5 -0.5,27.5C -0.5,20.8333 -0.5,14.1667 -0.5,7.5C 0.785292,6.21471 2.11863,4.88137 3.5,3.5C 11.5,7.5 19.5,7.5 27.5,3.5C 28.8814,4.88137 30.2147,6.21471 31.5,7.5 Z M 3.5,5.5 C 4.18586,6.84836 5.18586,8.01502 6.5,9C 5.55198,9.48278 4.55198,9.64945 3.5,9.5C 3.5,8.16667 3.5,6.83333 3.5,5.5 Z M 26.5,5.5 C 27.8157,11.0129 27.8157,16.6796 26.5,22.5C 23.2869,23.4269 20.1203,24.4269 17,25.5C 16.51,24.2068 16.3433,22.8734 16.5,21.5C 20.1095,21.5977 23.4429,20.7643 26.5,19C 25.8333,18.6667 25.1667,18.3333 24.5,18C 25.5156,17.4806 26.1822,16.6473 26.5,15.5C 25.8016,14.1374 25.8016,12.9707 26.5,12C 23.8333,11.3333 23.8333,10.6667 26.5,10C 22.551,9.19322 22.551,8.69322 26.5,8.5C 26.5,7.5 26.5,6.5 26.5,5.5 Z M 3.5,19.5 C 7.5887,20.201 11.2554,21.701 14.5,24C 11.4424,24.4577 8.44239,24.1244 5.5,23C 4.02674,22.2904 3.36007,21.1238 3.5,19.5 Z"/></g>
</svg>
