<?xml version="1.0" encoding="UTF-8"?>
<!DOCTYPE svg PUBLIC "-//W3C//DTD SVG 1.1//EN" "http://www.w3.org/Graphics/SVG/1.1/DTD/svg11.dtd">
<svg xmlns="http://www.w3.org/2000/svg" version="1.1" width="1000px" height="1000px" style="shape-rendering:geometricPrecision; text-rendering:geometricPrecision; image-rendering:optimizeQuality; fill-rule:evenodd; clip-rule:evenodd" xmlns:xlink="http://www.w3.org/1999/xlink">
<g><path style="opacity:0.909" fill="#000000" d="M 589.5,388.5 C 595.167,388.5 600.833,388.5 606.5,388.5C 606.5,392.833 606.5,397.167 606.5,401.5C 600.833,401.5 595.167,401.5 589.5,401.5C 589.5,397.167 589.5,392.833 589.5,388.5 Z"/></g>
<g><path style="opacity:0.857" fill="#000000" d="M 656.5,388.5 C 662.5,388.5 668.5,388.5 674.5,388.5C 674.5,392.833 674.5,397.167 674.5,401.5C 668.5,401.5 662.5,401.5 656.5,401.5C 656.5,397.167 656.5,392.833 656.5,388.5 Z"/></g>
<g><path style="opacity:0.927" fill="#000000" d="M 295.5,393.5 C 326.955,386.125 339.455,398.125 333,429.5C 332.169,434.681 329.336,438.181 324.5,440C 320.179,440.499 315.846,440.666 311.5,440.5C 311.5,450.833 311.5,461.167 311.5,471.5C 306.167,471.5 300.833,471.5 295.5,471.5C 295.5,445.5 295.5,419.5 295.5,393.5 Z M 311.5,407.5 C 316.358,408.693 318.358,411.859 317.5,417C 318.329,421.856 316.496,425.022 312,426.5C 311.5,420.175 311.334,413.842 311.5,407.5 Z"/></g>
<g><path style="opacity:0.904" fill="#000000" d="M 545.5,393.5 C 555.172,393.334 564.839,393.5 574.5,394C 581.22,395.918 584.72,400.418 585,407.5C 585.667,422.833 585.667,438.167 585,453.5C 584.918,461.514 581.418,467.348 574.5,471C 564.839,471.5 555.172,471.666 545.5,471.5C 545.5,445.5 545.5,419.5 545.5,393.5 Z M 562.5,407.5 C 564.117,408.038 565.784,408.371 567.5,408.5C 568.619,423.801 568.786,439.135 568,454.5C 566.826,456.671 564.993,457.671 562.5,457.5C 562.5,440.833 562.5,424.167 562.5,407.5 Z"/></g>
<g><path style="opacity:0.919" fill="#000000" d="M 186.5,394.5 C 220.833,394.5 255.167,394.5 289.5,394.5C 289.5,422.167 289.5,449.833 289.5,477.5C 255.167,477.5 220.833,477.5 186.5,477.5C 186.5,449.833 186.5,422.167 186.5,394.5 Z M 194.5,407.5 C 223.833,407.5 253.167,407.5 282.5,407.5C 282.5,428.5 282.5,449.5 282.5,470.5C 252.831,470.667 223.165,470.5 193.5,470C 194.493,449.242 194.827,428.409 194.5,407.5 Z"/></g>
<g><path style="opacity:0.878" fill="#000000" d="M 351.5,404.5 C 359.392,403.41 366.559,405.077 373,409.5C 375.11,412.492 376.443,415.825 377,419.5C 377.5,426.158 377.666,432.825 377.5,439.5C 369.833,439.5 362.167,439.5 354.5,439.5C 354.334,445.509 354.501,451.509 355,457.5C 356.079,459.394 357.413,459.727 359,458.5C 359.499,454.179 359.666,449.846 359.5,445.5C 365.5,445.5 371.5,445.5 377.5,445.5C 379.482,465.686 370.482,474.519 350.5,472C 341.5,469.182 337,463.015 337,453.5C 336.103,440.785 336.436,428.118 338,415.5C 340.616,409.372 345.116,405.706 351.5,404.5 Z M 356.5,417.5 C 357.496,417.414 358.329,417.748 359,418.5C 359.499,422.821 359.666,427.154 359.5,431.5C 357.833,431.5 356.167,431.5 354.5,431.5C 353.962,426.533 354.629,421.866 356.5,417.5 Z"/></g>
<g><path style="opacity:0.91" fill="#000000" d="M 405.5,404.5 C 407.167,404.5 408.833,404.5 410.5,404.5C 410.5,409.167 410.5,413.833 410.5,418.5C 406.259,418.185 402.426,419.185 399,421.5C 398.5,438.163 398.333,454.83 398.5,471.5C 392.833,471.5 387.167,471.5 381.5,471.5C 381.5,449.5 381.5,427.5 381.5,405.5C 387.167,405.5 392.833,405.5 398.5,405.5C 398.343,406.873 398.51,408.207 399,409.5C 400.78,407.206 402.947,405.539 405.5,404.5 Z"/></g>
<g><path style="opacity:0.877" fill="#000000" d="M 436.5,404.5 C 444.038,402.85 449.204,405.517 452,412.5C 453.603,428.112 453.937,443.779 453,459.5C 451.294,469.549 445.46,473.716 435.5,472C 433.508,471.426 432.008,470.259 431,468.5C 430.501,473.155 430.334,477.821 430.5,482.5C 424.5,482.5 418.5,482.5 412.5,482.5C 412.5,456.833 412.5,431.167 412.5,405.5C 418.5,405.5 424.5,405.5 430.5,405.5C 430.351,406.552 430.517,407.552 431,408.5C 432.5,406.531 434.333,405.198 436.5,404.5 Z M 432.5,417.5 C 433.496,417.414 434.329,417.748 435,418.5C 435.667,431.833 435.667,445.167 435,458.5C 433.413,459.727 432.079,459.394 431,457.5C 430.333,444.833 430.333,432.167 431,419.5C 431.717,418.956 432.217,418.289 432.5,417.5 Z"/></g>
<g><path style="opacity:0.88" fill="#000000" d="M 516.5,404.5 C 533.22,401.98 541.553,408.98 541.5,425.5C 535.5,425.5 529.5,425.5 523.5,425.5C 523.663,423.143 523.497,420.81 523,418.5C 521.413,417.273 520.079,417.606 519,419.5C 518.48,421.289 518.813,422.956 520,424.5C 525.167,428.333 530.333,432.167 535.5,436C 544.756,447.071 544.756,458.071 535.5,469C 526.167,473.667 516.833,473.667 507.5,469C 502.05,462.52 500.05,455.02 501.5,446.5C 507.167,446.5 512.833,446.5 518.5,446.5C 518.335,450.182 518.501,453.848 519,457.5C 522.288,460.121 524.121,459.121 524.5,454.5C 524.101,452.803 523.601,451.137 523,449.5C 516.667,443.833 510.333,438.167 504,432.5C 498.28,418.435 502.446,409.102 516.5,404.5 Z"/></g>
<g><path style="opacity:0.878" fill="#000000" d="M 620.5,404.5 C 623.518,404.335 626.518,404.502 629.5,405C 631.329,405.273 632.829,406.107 634,407.5C 639.874,405.57 646.04,404.903 652.5,405.5C 652.957,427.886 652.457,450.22 651,472.5C 649.5,476.667 646.667,479.5 642.5,481C 634.913,482.563 627.246,482.896 619.5,482C 616.048,481.108 613.048,479.442 610.5,477C 612.059,473.369 614.226,470.203 617,467.5C 620.489,469.415 624.156,470.749 628,471.5C 633.38,469.743 635.38,466.076 634,460.5C 626.572,464.812 619.906,463.812 614,457.5C 613.178,455.212 612.511,452.878 612,450.5C 611.333,439.5 611.333,428.5 612,417.5C 612.368,411.402 615.201,407.069 620.5,404.5 Z M 630.5,417.5 C 632.017,417.511 633.184,418.177 634,419.5C 634.667,429.167 634.667,438.833 634,448.5C 632.667,451.167 631.333,451.167 630,448.5C 629.192,438.09 629.359,427.757 630.5,417.5 Z"/></g>
<g><path style="opacity:0.908" fill="#000000" d="M 457.5,405.5 C 463.167,405.5 468.833,405.5 474.5,405.5C 474.333,422.17 474.5,438.837 475,455.5C 475.549,459.617 477.216,460.284 480,457.5C 480.5,440.17 480.667,422.837 480.5,405.5C 486.167,405.5 491.833,405.5 497.5,405.5C 497.5,427.5 497.5,449.5 497.5,471.5C 491.833,471.5 486.167,471.5 480.5,471.5C 480.649,470.448 480.483,469.448 480,468.5C 478.992,470.259 477.492,471.426 475.5,472C 468.265,473.927 462.765,471.76 459,465.5C 457.548,445.554 457.048,425.554 457.5,405.5 Z"/></g>
<g><path style="opacity:0.909" fill="#000000" d="M 589.5,405.5 C 595.167,405.5 600.833,405.5 606.5,405.5C 606.5,427.5 606.5,449.5 606.5,471.5C 600.833,471.5 595.167,471.5 589.5,471.5C 589.5,449.5 589.5,427.5 589.5,405.5 Z"/></g>
<g><path style="opacity:0.857" fill="#000000" d="M 656.5,405.5 C 662.5,405.5 668.5,405.5 674.5,405.5C 674.5,427.5 674.5,449.5 674.5,471.5C 668.5,471.5 662.5,471.5 656.5,471.5C 656.5,449.5 656.5,427.5 656.5,405.5 Z"/></g>
<g><path style="opacity:0.934" fill="#000000" d="M 199.5,419.5 C 210.5,419.5 221.5,419.5 232.5,419.5C 232.5,430.5 232.5,441.5 232.5,452.5C 221.5,452.5 210.5,452.5 199.5,452.5C 199.5,441.5 199.5,430.5 199.5,419.5 Z"/></g>
<g><path style="opacity:0.923" fill="#000000" d="M 244.5,419.5 C 255.167,419.5 265.833,419.5 276.5,419.5C 276.5,421.833 276.5,424.167 276.5,426.5C 265.833,426.5 255.167,426.5 244.5,426.5C 244.5,424.167 244.5,421.833 244.5,419.5 Z"/></g>
<g><path style="opacity:0.922" fill="#000000" d="M 244.5,432.5 C 255.167,432.5 265.833,432.5 276.5,432.5C 276.5,434.833 276.5,437.167 276.5,439.5C 265.833,439.5 255.167,439.5 244.5,439.5C 244.5,437.167 244.5,434.833 244.5,432.5 Z"/></g>
<g><path style="opacity:0.813" fill="#000000" d="M 244.5,444.5 C 250.833,444.5 257.167,444.5 263.5,444.5C 263.5,447.167 263.5,449.833 263.5,452.5C 257.167,452.5 250.833,452.5 244.5,452.5C 244.5,449.833 244.5,447.167 244.5,444.5 Z"/></g>
</svg>
