<svg xmlns="http://www.w3.org/2000/svg" xmlns:xlink="http://www.w3.org/1999/xlink" version="1.1" width="1000" height="1000" viewBox="0 0 1000 1000" xml:space="preserve">
<desc>Created with Fabric.js 3.5.0</desc>
<defs>
</defs>
<rect x="0" y="0" width="100%" height="100%" fill="#ffffff"/>
<g transform="matrix(1 0 0 1 543.284 515.063)" style="" id="543224">
		
<path xml:space="preserve" font-family="Raleway" font-size="85" font-weight="bold" style="stroke: none; stroke-width: 0; stroke-dasharray: none; stroke-linecap: butt; stroke-dashoffset: 0; stroke-linejoin: miter; stroke-miterlimit: 4; is-custom-font: none; font-file-url: none; fill: rgb(29,29,27); fill-rule: nonzero; opacity: 1; white-space: pre;" d="M-202.81 26.70L-214.54 26.70L-214.54-33.65L-188.95-33.65Q-184.79-33.65-181.30-31.95Q-177.82-30.25-175.22-27.36Q-172.63-24.47-171.19-20.90Q-169.74-17.33-169.74-13.59L-169.74-13.59Q-169.74-8.49-172.12-3.90Q-174.50 0.69-178.67 3.58Q-182.83 6.47-188.53 6.47L-188.53 6.47L-202.81 6.47L-202.81 26.70ZM-202.81-23.36L-202.81-3.81L-189.21-3.81Q-187.08-3.81-185.38-5.00Q-183.68-6.19-182.66-8.45Q-181.64-10.70-181.64-13.59L-181.64-13.59Q-181.64-16.73-182.79-18.94Q-183.94-21.15-185.76-22.26Q-187.59-23.36-189.72-23.36L-189.72-23.36L-202.81-23.36ZM-142.97 27.55L-142.97 27.55Q-148.32 27.55-152.66 25.72Q-156.99 23.90-160.05 20.71Q-163.11 17.52-164.77 13.40Q-166.43 9.28-166.43 4.69L-166.43 4.69Q-166.43-1.69-163.58-6.96Q-160.73-12.23-155.42-15.42Q-150.11-18.60-142.88-18.60L-142.88-18.60Q-135.57-18.60-130.39-15.42Q-125.20-12.23-122.44-7.00Q-119.68-1.77-119.68 4.26L-119.68 4.26Q-119.68 5.28-119.76 6.34Q-119.85 7.41-119.93 8.09L-119.93 8.09L-154.36 8.09Q-154.02 11.49-152.36 14.04Q-150.70 16.59-148.11 17.90Q-145.52 19.22-142.54 19.22L-142.54 19.22Q-139.14 19.22-136.12 17.56Q-133.11 15.91-132.00 13.19L-132.00 13.19L-122.23 15.91Q-123.84 19.31-126.86 21.94Q-129.88 24.58-133.96 26.06Q-138.04 27.55-142.97 27.55ZM-154.61 0.86L-154.61 0.86L-131.32 0.86Q-131.66-2.54-133.23-5.05Q-134.81-7.55-137.36-8.96Q-139.91-10.36-143.05-10.36L-143.05-10.36Q-146.11-10.36-148.62-8.96Q-151.13-7.55-152.70-5.05Q-154.27-2.54-154.61 0.86ZM-86.19-18.35L-86.19-7.98Q-91.37-7.98-95.45-5.98Q-99.53-3.98-101.32-0.24L-101.32-0.24L-101.32 26.70L-112.71 26.70L-112.71-17.84L-102.25-17.84L-102.25-8.32Q-99.87-12.91-96.22-15.54Q-92.56-18.18-88.48-18.43L-88.48-18.43Q-87.55-18.43-87.04-18.43Q-86.53-18.43-86.19-18.35L-86.19-18.35ZM-53.12 27.55L-53.12 27.55Q-58.31 27.55-62.26 25.21Q-66.21 22.88-68.42 18.88L-68.42 18.88L-68.42 44.81L-79.81 44.81L-79.81-17.84L-69.87-17.84L-69.87-10.19Q-67.32-14.10-63.41-16.35Q-59.50-18.60-54.48-18.60L-54.48-18.60Q-49.98-18.60-46.19-16.82Q-42.41-15.03-39.61-11.85Q-36.80-8.66-35.23-4.54Q-33.66-0.41-33.66 4.35L-33.66 4.35Q-33.66 10.81-36.16 16.08Q-38.67 21.35-43.05 24.45Q-47.43 27.55-53.12 27.55ZM-56.95 17.86L-56.95 17.86Q-54.31 17.86-52.19 16.76Q-50.06 15.65-48.49 13.74Q-46.92 11.83-46.11 9.40Q-45.30 6.98-45.30 4.35L-45.30 4.35Q-45.30 1.54-46.19-0.84Q-47.09-3.22-48.79-5.05Q-50.49-6.87-52.74-7.89Q-54.99-8.91-57.63-8.91L-57.63-8.91Q-59.24-8.91-60.90-8.36Q-62.56-7.81-64.09-6.79Q-65.62-5.77-66.76-4.41Q-67.91-3.05-68.42-1.43L-68.42-1.43L-68.42 9.02Q-67.40 11.49-65.66 13.53Q-63.92 15.57-61.62 16.71Q-59.33 17.86-56.95 17.86ZM-26.35 10.04L-26.35 10.04L-26.35-17.84L-14.96-17.84L-14.96 7.58Q-14.96 12.68-13.09 15.27Q-11.22 17.86-7.56 17.86L-7.56 17.86Q-5.35 17.86-3.18 16.97Q-1.02 16.08 0.81 14.29Q2.64 12.51 3.91 9.79L3.91 9.79L3.91-17.84L15.30-17.84L15.30 13.95Q15.30 15.74 15.94 16.50Q16.58 17.27 18.02 17.44L18.02 17.44L18.02 26.70Q16.32 26.96 15.18 27.08Q14.03 27.21 13.09 27.21L13.09 27.21Q10.03 27.21 8.12 25.81Q6.21 24.41 5.87 21.94L5.87 21.94L5.61 18.37Q2.64 22.88-2.04 25.21Q-6.71 27.55-12.32 27.55L-12.32 27.55Q-19.21 27.55-22.78 23.09Q-26.35 18.63-26.35 10.04ZM43.01 27.55L43.01 27.55Q37.32 27.55 32.13 25.68Q26.95 23.81 23.21 20.16L23.21 20.16L27.29 12.76Q31.28 15.99 35.15 17.52Q39.02 19.05 42.59 19.05L42.59 19.05Q45.90 19.05 47.90 17.86Q49.90 16.67 49.90 14.29L49.90 14.29Q49.90 12.68 48.79 11.78Q47.69 10.89 45.61 10.21Q43.52 9.53 40.55 8.68L40.55 8.68Q35.62 7.07 32.30 5.54Q28.99 4.01 27.33 1.67Q25.67-0.67 25.67-4.32L25.67-4.32Q25.67-8.74 27.93-11.93Q30.18-15.12 34.22-16.90Q38.25-18.69 43.69-18.69L43.69-18.69Q48.45-18.69 52.70-17.20Q56.95-15.71 60.44-12.40L60.44-12.40L55.85-5.17Q52.45-7.81 49.39-9.04Q46.33-10.27 43.18-10.27L43.18-10.27Q41.40-10.27 39.83-9.85Q38.25-9.42 37.28-8.45Q36.30-7.47 36.30-5.68L36.30-5.68Q36.30-4.07 37.19-3.18Q38.08-2.28 39.91-1.60Q41.74-0.92 44.37-0.07L44.37-0.07Q49.73 1.46 53.43 3.07Q57.12 4.69 58.99 7.02Q60.86 9.36 60.86 13.44L60.86 13.44Q60.86 20.07 56.02 23.81Q51.17 27.55 43.01 27.55ZM91.12 26.70L69.19 26.70L69.19-33.65L91.12-33.65Q100.98-33.65 107.61-29.61Q114.24-25.57 117.56-18.73Q120.87-11.89 120.87-3.56L120.87-3.56Q120.87 5.62 117.22 12.42Q113.56 19.22 106.89 22.96Q100.22 26.70 91.12 26.70L91.12 26.70ZM109.06-3.56L109.06-3.56Q109.06-9.42 106.93-13.89Q104.81-18.35 100.81-20.86Q96.82-23.36 91.12-23.36L91.12-23.36L80.92-23.36L80.92 16.42L91.12 16.42Q96.90 16.42 100.90 13.82Q104.89 11.23 106.98 6.68Q109.06 2.14 109.06-3.56ZM140.17 26.70L128.78 26.70L128.78-17.84L140.17-17.84L140.17 26.70ZM140.17-24.04L128.78-24.04L128.78-35.35L140.17-35.35L140.17-24.04ZM167.88 26.96L167.88 26.96Q163.46 26.96 159.76 25.21Q156.06 23.47 153.39 20.33Q150.71 17.18 149.26 13.10Q147.82 9.02 147.82 4.43L147.82 4.43Q147.82-0.41 149.35-4.58Q150.88-8.74 153.64-11.93Q156.40-15.12 160.19-16.86Q163.97-18.60 168.56-18.60L168.56-18.60Q173.74-18.60 177.65-16.27Q181.56-13.93 184.11-10.02L184.11-10.02L184.11-17.84L194.06-17.84L194.06 24.58Q194.06 31.21 190.87 35.92Q187.68 40.64 182.07 43.15Q176.46 45.66 169.32 45.66L169.32 45.66Q162.10 45.66 157.08 43.23Q152.07 40.81 148.50 36.39L148.50 36.39L154.70 30.36Q157.25 33.50 161.12 35.29Q164.99 37.07 169.32 37.07L169.32 37.07Q172.98 37.07 176.00 35.75Q179.01 34.44 180.84 31.67Q182.67 28.91 182.67 24.58L182.67 24.58L182.67 18.97Q180.46 22.79 176.42 24.87Q172.38 26.96 167.88 26.96ZM171.70 17.86L171.70 17.86Q173.57 17.86 175.27 17.27Q176.97 16.67 178.42 15.65Q179.86 14.63 180.97 13.23Q182.07 11.83 182.67 10.38L182.67 10.38L182.67-0.24Q181.65-2.88 179.82-4.83Q177.99-6.79 175.74-7.85Q173.49-8.91 171.02-8.91L171.02-8.91Q168.39-8.91 166.26-7.81Q164.14-6.70 162.61-4.71Q161.08-2.71 160.27-0.29Q159.46 2.14 159.46 4.77L159.46 4.77Q159.46 7.49 160.40 9.87Q161.33 12.25 162.99 14.04Q164.65 15.82 166.90 16.84Q169.15 17.86 171.70 17.86ZM215.73 26.70L204.34 26.70L204.34-17.84L215.73-17.84L215.73 26.70ZM215.73-24.04L204.34-24.04L204.34-35.35L215.73-35.35L215.73-24.04Z"/></g>
<g transform="matrix(3.76 0 0 3.76 249.6168 499.9995)" id="850645">
<g style="" vector-effect="non-scaling-stroke">
		<g transform="matrix(1 0 0 1 0 0)" id="background">
<rect style="stroke: none; stroke-width: 1; stroke-dasharray: none; stroke-linecap: butt; stroke-dashoffset: 0; stroke-linejoin: miter; stroke-miterlimit: 4; is-custom-font: none; font-file-url: none; fill: none; fill-rule: nonzero; opacity: 1;" x="-16" y="-16" rx="0" ry="0" width="32" height="32"/>
</g>
		<g transform="matrix(1 0 0 1 0 3)" id="website">
<path style="stroke: none; stroke-width: 1; stroke-dasharray: none; stroke-linecap: butt; stroke-dashoffset: 0; stroke-linejoin: miter; stroke-miterlimit: 4; is-custom-font: none; font-file-url: none; fill: rgb(0,0,0); fill-rule: nonzero; opacity: 1;" transform=" translate(-16, -19)" d="M 28 14 H 18 v 2 h 10 V 14 z M 28 18 H 18 v 2 h 10 V 18 z M 24 22 h -6 v 2 h 6 V 22 z M 14 14 H 4 v 10 h 10 V 14 z M 0 6 v 26 h 32 V 6 H 0 z M 30 30 H 2 l 0.08 -20 H 30 V 30 z" stroke-linecap="round"/>
</g>
</g>
</g>
</svg>